HIERARCHY
ROOT Hips
{
	OFFSET 0.00000 0.00000 0.00000
	CHANNELS 6 Xposition Yposition Zposition Zrotation Yrotation Xrotation 
	JOINT LHipJoint
	{
		OFFSET 0 0 0
		CHANNELS 3 Zrotation Yrotation Xrotation
		JOINT LeftHip
		{
			OFFSET 1.36306 -1.79463 0.83929
			CHANNELS 3 Zrotation Yrotation Xrotation
			JOINT LeftKnee
			{
				OFFSET 2.44811 -6.72613 0.00000
				CHANNELS 3 Zrotation Yrotation Xrotation
				JOINT LeftAnkle
				{
					OFFSET 2.56220 -7.03959 0.00000
					CHANNELS 3 Zrotation Yrotation Xrotation
					JOINT LeftToe
					{
						OFFSET 0.15764 -0.43311 2.32255
						CHANNELS 3 Zrotation Yrotation Xrotation
						End Site
						{
							OFFSET 0.00000 -0.00000 1.18966
						}
					}
				}
			}
		}
	}
	JOINT RHipJoint
	{
		OFFSET 0 0 0
		CHANNELS 3 Zrotation Yrotation Xrotation
		JOINT RightHip
		{
			OFFSET -1.30552 -1.79463 0.83929
			CHANNELS 3 Zrotation Yrotation Xrotation
			JOINT RightKnee
			{
				OFFSET -2.54253 -6.98555 0.00000
				CHANNELS 3 Zrotation Yrotation Xrotation
				JOINT RightAnkle
				{
					OFFSET -2.56826 -7.05623 0.00000
					CHANNELS 3 Zrotation Yrotation Xrotation
					JOINT RightToe
					{
						OFFSET -0.16473 -0.45259 2.36315
						CHANNELS 3 Zrotation Yrotation Xrotation
						End Site
						{
							OFFSET -0.00000 -0.00000 1.21082
						}
					}
				}
			}
		}
	}
	JOINT lowerback
	{
		OFFSET 0 0 0
		CHANNELS 3 Zrotation Yrotation Xrotation
		JOINT Chest
		{
			OFFSET 0.02827 2.03559 -0.19338
			CHANNELS 3 Zrotation Yrotation Xrotation
			JOINT Chest2
			{
				OFFSET 0.05672 2.04885 -0.04275
				CHANNELS 3 Zrotation Yrotation Xrotation
				JOINT lowerneck
				{
					OFFSET 0 0 0
					CHANNELS 3 Zrotation Yrotation Xrotation
					JOINT Neck
					{
						OFFSET -0.05417 1.74624 0.17202
						CHANNELS 3 Zrotation Yrotation Xrotation
						JOINT Head
						{
							OFFSET 0.10407 1.76136 -0.12397
							CHANNELS 3 Zrotation Yrotation Xrotation
							End Site
							{
								OFFSET 0.03720 1.77044 -0.06241
							}
						}
					}
				}
				JOINT LeftCollar
				{
					OFFSET 0 0 0
					CHANNELS 3 Zrotation Yrotation Xrotation
					JOINT LeftShoulder
					{
						OFFSET 3.36241 1.20089 -0.31121
CHANNELS 3 Zrotation Xrotation Yrotation
						JOINT LeftElbow
						{
OFFSET 0 -4.983000 -0.000000
CHANNELS 3 Zrotation Xrotation Yrotation
							JOINT LeftWrist
							{
OFFSET 0 -3.483560 -0.000000
CHANNELS 3 Zrotation Xrotation Yrotation
								JOINT lhand
								{
									OFFSET 0 0 0
CHANNELS 3 Zrotation Xrotation Yrotation
									JOINT LFingers
									{
OFFSET 0 -0.715260 -0.000000
CHANNELS 3 Zrotation Xrotation Yrotation
										End Site
										{
OFFSET 0 -0.576660 -0.000000
										}
									}
								}
								JOINT LThumb
								{
OFFSET 0 0.000000 0.000000
CHANNELS 3 Zrotation Xrotation Yrotation
									End Site
									{
OFFSET 0 -0.585470 0.585470
									}
								}
							}
						}
					}
				}
				JOINT RightCollar
				{
					OFFSET 0 0 0
					CHANNELS 3 Zrotation Yrotation Xrotation
					JOINT RightShoulder
					{
						OFFSET -3.13660 1.37405 -0.40465
CHANNELS 3 Zrotation Xrotation Yrotation
						JOINT RightElbow
						{
OFFSET 0 -5.241900 -0.000000
CHANNELS 3 Zrotation Xrotation Yrotation
							JOINT RightWrist
							{
OFFSET 0 -3.444170 -0.000000
CHANNELS 3 Zrotation Xrotation Yrotation
								JOINT rhand
								{
									OFFSET 0 0 0
CHANNELS 3 Zrotation Xrotation Yrotation
									JOINT RFingers
									{
OFFSET 0 -0.622530 -0.000000
CHANNELS 3 Zrotation Xrotation Yrotation
										End Site
										{
OFFSET 0 -0.501900 -0.000000
										}
									}
								}
								JOINT RThumb
								{
OFFSET 0 0.000000 0.000000
CHANNELS 3 Zrotation Xrotation Yrotation
									End Site
									{
OFFSET 0 -0.509560 0.509560
									}
								}
							}
						}
					}
				}
			}
		}
	}
}
MOTION
Frames: 12
Frame Time: 0.008333333333333333
11.656200 17.384700 13.933000 -66.073700 -88.573400 70.237300 0.000000 0.000000 0.000000 -21.075300 6.593600 3.008600 1.205100 6.964700 19.610900 1.593600 -10.897200 -22.756700 0.111800 2.155700 5.936300 0.000000 0.000000 0.000000 17.980700 11.075700 -35.184500 -2.097100 -9.065600 26.000600 0.250600 -9.801400 -8.126000 -0.087300 -1.906100 5.246100 -3.406300 0.180400 9.039000 1.728600 -0.117000 3.382400 3.722900 -0.128200 -1.546800 -6.791200 -6.305800 -3.297900 4.916000 -8.702000 11.693800 2.148100 -4.365900 4.554900 -0.000000 0.000000 0.000000 3.260500 -5.220200 -19.911800 23.918500 -35.077900 7.659600 20.506800 -6.751800 3.813000 0.000000 0.000000 0.000000 -7.125000 0.000000 0.000000 -4.632000 25.906100 -2.149400 -0.000000 0.000000 0.000000 -3.210300 0.893600 18.336000 -14.643100 -23.646600 -3.081400 -15.474300 -3.372500 23.010000 0.000000 0.000000 0.000000 7.125000 0.000000 -0.000000 14.115100 53.207300 -2.895200
11.021427 17.353474 13.883274 -5.998778 -88.990823 11.888191 0.000000 0.000000 0.000000 -21.834511 7.537477 5.260162 0.790145 5.674368 15.842431 1.298950 -11.459356 -20.725876 0.209491 2.943102 8.120675 0.000000 0.000000 0.000000 16.400043 12.702090 -37.137181 -1.560813 -7.884189 22.362854 0.008918 -9.054618 -12.738930 -0.090607 -1.926055 5.301671 -4.897935 -0.206796 9.168330 1.042418 -0.776875 3.390495 3.920256 -0.460543 -1.535826 -6.603950 -6.736556 -3.154879 4.836977 -9.311575 11.927038 2.056901 -4.663469 4.627101 0.000000 0.000000 0.000000 4.260191 -6.750201 -21.851665 24.510585 -35.699516 8.002551 20.912306 -6.849514 3.713403 0.000000 0.000000 0.000000 -7.125000 0.000000 0.000000 -4.327329 26.001740 -1.997282 0.000000 0.000000 0.000000 -3.025329 2.191880 20.142811 -15.990387 -25.507675 -3.641864 -15.972289 -3.956824 23.043448 0.000000 0.000000 0.000000 7.125000 0.000000 0.000000 13.636255 53.330349 -2.835504
10.290223 17.324449 13.801565 -5.882030 -87.998365 12.920075 0.000000 0.000000 0.000000 -20.686155 7.872007 8.253029 0.503421 4.546030 12.618619 0.955479 -11.982686 -18.173427 0.166249 2.620608 7.224572 0.000000 0.000000 0.000000 16.826947 13.160681 -37.869736 -1.834519 -8.512147 24.280997 0.241185 -9.612810 -7.959176 -0.550566 -4.733349 13.153505 -5.052022 -1.071146 10.026874 1.135444 -1.991660 3.810848 4.243670 -1.088879 -1.434089 -6.724664 -6.803733 -3.180123 4.478316 -9.229084 10.100406 2.000319 -4.627913 4.059175 0.000000 0.000000 0.000000 4.861888 -8.598819 -22.142980 24.387940 -35.571879 7.931152 19.844276 -7.576545 3.971063 0.000000 0.000000 0.000000 -7.125000 0.000000 0.000000 -5.128628 25.755138 -2.399923 0.000000 0.000000 0.000000 -3.789733 2.116448 20.271414 -16.247558 -25.854602 -3.753602 -14.208803 -4.814509 22.919977 0.000000 0.000000 0.000000 7.125000 0.000000 0.000000 15.321958 52.893095 -3.032672
9.377849 17.394805 13.667908 -27.954812 -86.369917 35.368789 0.000000 0.000000 0.000000 -17.843532 7.244347 12.860383 0.265036 3.308450 9.139097 0.500245 -9.659381 -13.374062 0.033525 1.180255 3.244980 0.000000 0.000000 0.000000 19.127678 12.818699 -37.332994 -2.325863 -9.514131 27.417294 0.352608 -10.677392 -6.255115 -1.556922 -7.874787 22.334314 -4.611254 -1.469873 10.817464 1.998726 -2.521669 4.414946 4.971527 -1.393893 -1.155956 -8.114859 -7.096652 -3.797101 4.916565 -9.438064 8.642094 2.334826 -4.731846 3.818438 0.000000 0.000000 0.000000 4.665612 -8.706364 -23.055658 24.176087 -35.349909 7.808239 19.483983 -7.067358 4.340631 0.000000 0.000000 0.000000 -7.125000 0.000000 0.000000 -5.390175 25.374260 -2.571665 0.000000 0.000000 0.000000 -5.074698 1.544663 20.340774 -15.011678 -24.162255 -3.230803 -13.444588 -5.395618 22.621089 0.000000 0.000000 0.000000 7.125000 0.000000 0.000000 15.930883 52.468107 -2.990249
8.376417 17.500320 13.535614 -49.559965 -84.960202 57.225659 0.000000 0.000000 0.000000 -14.806440 4.380713 10.231092 1.135334 6.760811 19.011011 0.132574 -8.692902 -8.354360 0.039359 -1.229232 -3.380387 0.000000 0.000000 0.000000 23.382525 11.918739 -33.984116 -2.180161 -9.231687 26.522812 0.382767 -10.890381 -3.835427 -0.747041 -5.517229 15.390846 -3.230650 -1.451962 11.342008 2.438068 -2.372091 4.404588 4.656013 -1.304397 -1.514131 -8.360485 -7.512396 -2.828828 4.253617 -9.924880 6.615537 2.450482 -5.014033 3.376763 0.000000 0.000000 0.000000 5.418661 -7.439048 -24.630270 22.824389 -33.895959 7.040251 18.999673 -6.629373 5.003332 0.000000 0.000000 0.000000 -7.125000 0.000000 0.000000 -5.735568 24.690191 -2.829254 0.000000 0.000000 0.000000 -4.918209 0.995844 15.592184 -12.887182 -21.121364 -2.412691 -14.745478 -0.902918 22.816794 0.000000 0.000000 0.000000 7.125000 0.000000 0.000000 14.746881 52.887069 -2.912601
7.388726 17.724658 13.468085 -51.254401 -83.938035 59.134337 0.000000 0.000000 0.000000 -12.682006 1.173924 3.216332 3.514755 11.475572 33.912771 -0.109841 -6.016839 3.202364 0.006411 0.329122 0.904531 0.000000 0.000000 0.000000 26.149927 8.127140 -31.128453 -2.097125 -9.065008 25.999210 0.139076 -7.258023 -5.878959 -1.291992 -7.201250 20.313253 -1.616489 -1.381838 11.670344 1.945934 -2.104902 4.104699 3.214397 -1.132694 -2.116321 -9.141580 -8.499264 -1.804793 4.724950 -11.291442 5.436001 2.726120 -5.695409 2.971018 0.000000 0.000000 0.000000 6.329569 -6.272091 -24.791143 21.812239 -32.764131 6.483947 13.961331 -3.578060 5.705459 0.000000 0.000000 0.000000 -7.125000 0.000000 0.000000 -9.448292 24.109196 -4.828791 0.000000 0.000000 0.000000 -4.658918 0.399180 11.842327 -11.343766 -18.813279 -1.885308 -15.042883 1.624965 23.093689 0.000000 0.000000 0.000000 7.125000 0.000000 0.000000 14.581725 53.212227 -2.995721
6.435654 17.833571 13.352119 -68.898930 -79.978933 75.004355 0.000000 0.000000 0.000000 -5.531141 -1.280562 -4.249319 7.510068 15.742708 50.771087 0.495114 -5.288259 16.269396 0.135622 2.345765 6.463376 0.000000 0.000000 0.000000 33.183946 5.116084 -23.942184 -1.486637 -7.702926 21.815406 0.095241 -6.289149 -5.616493 -0.819144 -5.769440 16.118336 2.003175 -0.813902 12.570835 2.601880 -0.965827 4.581755 1.719527 -0.576708 -2.225706 -10.093386 -9.779175 -0.810765 5.886958 -13.066335 3.549197 3.264224 -6.564259 2.464733 0.000000 0.000000 0.000000 6.922045 -5.319400 -23.828644 21.806844 -32.757977 6.481052 11.853186 -2.229332 5.497863 0.000000 0.000000 0.000000 -7.125000 0.000000 0.000000 -11.017136 24.366549 -5.589882 0.000000 0.000000 0.000000 -5.890981 0.202425 15.272325 -12.501668 -20.552733 -2.275407 -13.710952 -0.875078 26.016888 0.000000 0.000000 0.000000 7.125000 0.000000 0.000000 17.430502 55.791074 -4.732993
5.524147 17.857429 13.294236 -74.848864 -78.259349 79.560231 0.000000 0.000000 0.000000 -1.354020 -3.507252 -10.373598 10.843913 17.856793 62.272256 0.183150 -7.534322 14.042990 0.351323 3.802349 10.522002 0.000000 0.000000 0.000000 36.237362 2.570203 -18.771827 -1.315006 -7.263203 20.497538 -0.025991 -4.550778 -7.382196 -0.881589 -5.983843 16.738087 2.904921 -0.487183 12.602823 2.577164 -0.440024 4.635709 1.111907 -0.313118 -2.200015 -10.786794 -10.475927 0.178169 6.644468 -14.075315 2.307593 3.666287 -7.070054 2.086604 0.000000 0.000000 0.000000 7.158145 -3.316676 -22.115217 22.398590 -33.424568 6.804109 16.913549 -5.692648 5.687939 0.000000 0.000000 0.000000 -7.125000 0.000000 0.000000 -7.267189 24.041540 -3.703251 0.000000 0.000000 0.000000 -8.283021 -0.557594 20.868662 -14.364100 -23.251970 -2.970818 -14.135319 -4.126789 23.912109 0.000000 0.000000 0.000000 7.125000 0.000000 0.000000 15.871381 53.845827 -3.519932
4.607059 17.840587 13.299897 -75.130696 -77.176429 78.921203 0.000000 0.000000 0.000000 1.488276 -6.541419 -16.123866 12.588990 18.628553 67.843840 -0.280213 -10.142091 7.931378 0.223794 3.043969 8.401270 0.000000 0.000000 0.000000 37.593517 1.178110 -14.245324 -1.274023 -7.153657 20.171442 -0.179697 -4.230129 -10.695903 -0.789417 -5.668887 15.827360 3.614198 -0.556997 11.992840 2.284433 -0.440874 4.199383 0.403997 -0.298261 -2.329889 -10.858534 -11.119381 0.179531 7.050786 -14.964355 2.713111 3.496604 -7.504813 2.195950 0.000000 0.000000 0.000000 6.967623 -0.980475 -20.081936 22.270636 -33.281376 6.733806 21.310119 -6.172346 3.811602 0.000000 0.000000 0.000000 -7.125000 0.000000 0.000000 -4.024070 25.886799 -1.868150 0.000000 0.000000 0.000000 -9.051084 -1.941854 17.954796 -17.085484 -26.969374 -4.126517 -14.440230 -2.794078 23.177766 0.000000 0.000000 0.000000 7.125000 0.000000 0.000000 15.214831 53.185944 -3.120863
3.747567 17.711660 13.334130 -77.494733 -76.334596 80.410358 0.000000 0.000000 0.000000 4.417280 -8.011638 -21.565836 12.427575 18.565493 67.337756 -0.407047 -12.130381 -0.409605 0.001158 -0.018044 -0.049628 0.000000 0.000000 0.000000 38.583236 0.284065 -11.229879 -1.561527 -7.885613 22.367192 -0.520230 -2.966273 -15.026754 -0.851152 -5.880579 16.439199 4.016102 -0.204589 11.836977 2.147551 0.100199 3.722146 -0.038435 -0.027587 -2.730627 -11.348738 -11.711927 0.872999 7.967833 -15.838598 2.112173 3.703093 -7.942389 2.015416 0.000000 0.000000 0.000000 6.488631 -0.042070 -16.852212 20.568478 -31.321010 5.824046 20.175661 -5.789972 4.502018 0.000000 0.000000 0.000000 -7.125000 0.000000 0.000000 -4.866711 25.183174 -2.340886 0.000000 0.000000 0.000000 -10.161551 -2.517361 18.609232 -20.869924 -31.675530 -5.981810 -18.694130 -6.210166 23.380495 0.000000 0.000000 0.000000 7.125000 0.000000 0.000000 11.049896 54.173160 -2.513520
2.888531 17.557343 13.432457 -79.319409 -75.827969 81.876067 0.000000 0.000000 0.000000 6.740747 -7.974976 -26.931459 10.586374 17.725962 61.430033 -0.119170 -10.995580 -5.736030 0.033802 1.107312 3.045024 0.000000 0.000000 0.000000 38.987593 -0.469295 -8.448828 -1.809279 -8.456917 24.110771 -0.919787 -1.819018 -18.859655 -0.910301 -6.079562 17.015507 4.799393 0.249751 11.470986 1.995002 0.799635 3.318784 -0.732146 0.319592 -2.914985 -14.605448 -12.203046 1.992073 9.946956 -16.719176 1.968989 4.724856 -8.416543 2.317171 0.000000 0.000000 0.000000 5.988272 -0.197608 -13.948640 18.373943 -28.633033 4.727239 18.082686 -4.855800 5.422669 0.000000 0.000000 0.000000 -7.125000 0.000000 0.000000 -6.407187 24.280201 -3.225526 0.000000 0.000000 0.000000 -11.563557 -3.303562 18.989660 -24.262031 -35.439502 -7.858221 -20.335927 -8.631723 23.609831 0.000000 0.000000 0.000000 7.125000 0.000000 0.000000 9.468549 54.722958 -2.275957
2.007082 17.451845 13.570533 -79.383213 -75.690411 81.639251 0.000000 0.000000 0.000000 7.758184 -7.680404 -30.230764 7.239225 15.528493 49.770783 0.139476 -6.529663 -7.529818 0.021589 0.930063 2.556455 0.000000 0.000000 0.000000 39.087600 -0.342868 -3.776920 -1.647524 -8.089589 22.986701 -1.080191 -4.355555 -21.657204 -0.404047 -4.079017 11.299368 5.560887 0.508101 11.425837 1.519350 1.219272 3.248950 -1.710472 0.529270 -2.913178 -14.487968 -12.796362 2.613120 9.784400 -17.585111 1.928648 4.637171 -8.862395 2.285005 0.000000 0.000000 0.000000 5.781865 -0.270162 -11.464584 17.413111 -27.399117 4.275740 16.679269 -3.024076 3.821250 0.000000 0.000000 0.000000 -7.125000 0.000000 0.000000 -7.523382 25.980469 -3.495771 0.000000 0.000000 0.000000 -12.642813 -4.666278 20.715908 -26.397839 -37.598814 -9.129339 -19.977044 -9.148607 24.970606 0.000000 0.000000 0.000000 7.125000 0.000000 0.000000 10.437883 56.032850 -2.847013
